<?xml version="1.0" encoding="utf-8"?>
<!-- Generator: Adobe Illustrator 24.0.0, SVG Export Plug-In . SVG Version: 6.00 Build 0)  -->
<svg version="1.1" id="Layer_1" xmlns="http://www.w3.org/2000/svg" xmlns:xlink="http://www.w3.org/1999/xlink" x="0px" y="0px"
	 viewBox="0 0 473.39 124.72" style="enable-background:new 0 0 473.39 124.72;" xml:space="preserve">
<style type="text/css">
	.st0{fill-rule:evenodd;clip-rule:evenodd;fill:#3B3A39;}
	.st1{fill:#1A1A18;}
	.st2{fill-rule:evenodd;clip-rule:evenodd;fill:#FFEC00;}
	.st3{fill:#3B3A39;}
</style>
<g>
	<g>
		<path class="st0" d="M51.35,124.14l8.75-15.98l6.28-11.46c19.92-6.36,34.35-25.01,34.35-47.04c0-27.27-22.1-49.37-49.37-49.37
			c-27.27,0-49.37,22.1-49.37,49.37c0,22.03,14.43,40.68,34.35,47.04l6.28,11.46L51.35,124.14z"/>
	</g>
	<g>
		<path class="st1" d="M51.35,124.72l-15.22-27.8C15.53,90.3,1.7,71.32,1.7,49.65C1.7,22.27,23.97,0,51.35,0
			s49.65,22.27,49.65,49.65c0,21.67-13.83,40.65-34.44,47.27L51.35,124.72z M51.35,0.56c-27.07,0-49.09,22.02-49.09,49.09
			c0,21.46,13.73,40.25,34.15,46.77l0.11,0.03l6.33,11.56l8.5,15.53l14.83-27.09l0.11-0.03c20.43-6.52,34.15-25.31,34.15-46.77
			C100.44,22.59,78.42,0.56,51.35,0.56z"/>
	</g>
	<g>
		<path class="st2" d="M51.02,13.98c11.11,0,20.98,5.26,27.27,13.43l-12.2,7.7c-3.68-4.17-9.07-6.81-15.07-6.81
			c-11.09,0-20.08,8.99-20.08,20.08c0,11.09,8.99,20.08,20.08,20.08c6,0,11.39-2.64,15.07-6.81l12.2,7.7
			C72,77.53,62.12,82.79,51.02,82.79c-19,0-34.4-15.4-34.4-34.4C16.62,29.38,32.02,13.98,51.02,13.98z"/>
	</g>
	<g>
		<path class="st1" d="M51.02,83.07c-19.13,0-34.68-15.56-34.68-34.69S31.89,13.7,51.02,13.7c10.84,0,20.87,4.94,27.49,13.54
			l0.19,0.24l-12.67,8l-0.16-0.18c-3.76-4.27-9.18-6.71-14.86-6.71c-10.92,0-19.8,8.88-19.8,19.8s8.88,19.8,19.8,19.8
			c5.68,0,11.1-2.45,14.86-6.71l0.16-0.18l12.67,8l-0.19,0.24C71.88,78.13,61.86,83.07,51.02,83.07z M51.02,14.26
			c-18.82,0-34.12,15.31-34.12,34.12S32.2,82.51,51.02,82.51c10.57,0,20.34-4.76,26.86-13.08l-11.74-7.41
			c-3.86,4.28-9.36,6.73-15.12,6.73c-11.23,0-20.36-9.13-20.36-20.36s9.13-20.36,20.36-20.36c5.76,0,11.26,2.45,15.12,6.73
			l11.74-7.41C71.36,19.02,61.58,14.26,51.02,14.26z"/>
	</g>
	<g>
		<g>
			<path class="st3" d="M146.06,43.09l9.31,2.82c-0.63,2.61-1.61,4.79-2.96,6.54c-1.35,1.75-3.01,3.07-5.01,3.96
				c-1.99,0.89-4.53,1.34-7.61,1.34c-3.74,0-6.79-0.54-9.16-1.63c-2.37-1.09-4.41-3-6.13-5.73c-1.72-2.73-2.58-6.24-2.58-10.5
				c0-5.69,1.51-10.06,4.54-13.12c3.03-3.06,7.31-4.58,12.84-4.58c4.33,0,7.74,0.88,10.22,2.63c2.48,1.75,4.32,4.44,5.52,8.07
				l-9.38,2.09c-0.33-1.05-0.67-1.81-1.03-2.3c-0.59-0.81-1.32-1.44-2.18-1.88s-1.82-0.66-2.89-0.66c-2.41,0-4.25,0.97-5.54,2.91
				c-0.97,1.44-1.45,3.69-1.45,6.77c0,3.81,0.58,6.43,1.74,7.84c1.16,1.41,2.78,2.12,4.88,2.12c2.03,0,3.57-0.57,4.61-1.71
				C144.84,46.92,145.59,45.26,146.06,43.09z"/>
		</g>
	</g>
	<g>
		<g>
			<path class="st3" d="M195.14,22.77v34.39h-9.99V38.28l-12.87,18.88h-10.03V22.77h10.02V41.8l12.93-19.03H195.14z"/>
		</g>
	</g>
	<g>
		<g>
			<path class="st3" d="M214.58,36.03h5.68c5.21,0,9.07,0.92,11.59,2.76c2.52,1.84,3.78,4.7,3.78,8.57c0,3.18-1.15,5.6-3.46,7.28
				c-2.31,1.68-5.62,2.52-9.93,2.52h-18.25V22.77h28.95v6.97h-18.34V36.03z M214.58,49.77h5.44c3.33,0,5-1.2,5-3.61
				c0-2.11-1.67-3.17-5-3.17h-5.44V49.77z"/>
		</g>
	</g>
	<g>
		<g>
			<path class="st3" d="M275.9,22.77v34.39h-9.99V38.28l-12.87,18.88h-10.03V22.77h10.02V41.8l12.93-19.03H275.9z"/>
		</g>
	</g>
	<g>
		<g>
			<path class="st3" d="M284.65,22.77h17.66c3.85,0,6.73,0.92,8.64,2.74c1.92,1.83,2.87,4.43,2.87,7.81c0,3.47-1.04,6.19-3.13,8.14
				c-2.09,1.96-5.27,2.93-9.56,2.93h-5.82v12.76h-10.67V22.77z M295.33,37.43h2.6c2.05,0,3.49-0.36,4.32-1.07
				c0.83-0.71,1.24-1.62,1.24-2.73c0-1.08-0.36-1.99-1.08-2.74c-0.72-0.75-2.07-1.13-4.06-1.13h-3.03V37.43z"/>
		</g>
	</g>
	<g>
		<g>
			<path class="st3" d="M343.98,43.09l9.31,2.82c-0.63,2.61-1.61,4.79-2.96,6.54c-1.34,1.75-3.01,3.07-5.01,3.96
				c-1.99,0.89-4.53,1.34-7.61,1.34c-3.74,0-6.79-0.54-9.16-1.63c-2.37-1.09-4.41-3-6.13-5.73c-1.72-2.73-2.58-6.24-2.58-10.5
				c0-5.69,1.51-10.06,4.54-13.12c3.03-3.06,7.31-4.58,12.84-4.58c4.33,0,7.74,0.88,10.22,2.63c2.48,1.75,4.32,4.44,5.52,8.07
				l-9.38,2.09c-0.33-1.05-0.67-1.81-1.03-2.3c-0.59-0.81-1.32-1.44-2.18-1.88c-0.86-0.44-1.82-0.66-2.89-0.66
				c-2.41,0-4.25,0.97-5.54,2.91c-0.97,1.44-1.45,3.69-1.45,6.77c0,3.81,0.58,6.43,1.74,7.84c1.16,1.41,2.78,2.12,4.88,2.12
				c2.03,0,3.57-0.57,4.61-1.71C342.75,46.92,343.51,45.26,343.98,43.09z"/>
		</g>
	</g>
	<g>
		<g>
			<path class="st3" d="M391.41,57.16h-11.97l-4.15-8.88c-0.98-2.1-1.74-3.41-2.29-3.94c-0.54-0.52-1.3-0.79-2.27-0.79v13.61h-10.6
				V22.77h10.6v13.21c0.92-0.05,1.64-0.38,2.16-0.99c0.52-0.61,1.32-2.36,2.42-5.26c0.8-2.14,1.6-3.68,2.42-4.61
				c0.81-0.93,2.14-1.6,3.96-2c1.83-0.41,4.7-0.61,8.61-0.61v7.27h-0.54c-1.81,0-3.16,0.34-4.04,1.03c-0.88,0.69-1.6,1.8-2.16,3.34
				c-0.56,1.54-1.17,2.69-1.82,3.45c-0.65,0.76-1.54,1.36-2.66,1.82c1.53,0.5,2.87,1.36,4.01,2.59c1.14,1.23,2.35,3.14,3.64,5.74
				L391.41,57.16z"/>
		</g>
	</g>
	<g>
		<g>
			<path class="st3" d="M429.82,22.77v34.39h-9.99V38.28l-12.87,18.88h-10.03V22.77h10.02V41.8l12.93-19.03H429.82z"/>
		</g>
	</g>
	<g>
		<g>
			<path class="st3" d="M471.52,22.77v34.39h-9.99V38.28l-12.87,18.88h-10.03V22.77h10.02V41.8l12.93-19.03H471.52z M463.74,14.3
				c-0.33,1.97-1.28,3.56-2.85,4.77c-1.57,1.21-3.44,1.82-5.62,1.82c-2.16,0-4.03-0.61-5.61-1.83c-1.58-1.22-2.53-2.81-2.84-4.76
				h4.08c0.66,1.96,2.08,2.93,4.27,2.93c2.35,0,3.84-0.98,4.48-2.93H463.74z"/>
		</g>
	</g>
	<g>
		<g>
			<path class="st3" d="M144.39,91.16h-10.95l-1.52,5.15h-9.85L133.8,65.1h10.52l11.73,31.22h-10.1L144.39,91.16z M142.39,84.41
				l-3.45-11.22l-3.41,11.22H142.39z"/>
		</g>
	</g>
	<g>
		<g>
			<path class="st3" d="M160.67,65.1h18.06c3.01,0,5.32,0.75,6.93,2.24c1.61,1.49,2.42,3.34,2.42,5.54c0,1.85-0.57,3.43-1.72,4.75
				c-0.77,0.88-1.89,1.58-3.36,2.09c2.24,0.54,3.89,1.47,4.95,2.78c1.06,1.31,1.59,2.96,1.59,4.95c0,1.62-0.38,3.07-1.13,4.37
				c-0.75,1.29-1.78,2.31-3.09,3.07c-0.81,0.47-2.03,0.81-3.66,1.02c-2.17,0.28-3.61,0.43-4.32,0.43h-16.65V65.1z M170.41,77.34
				h4.19c1.5,0,2.55-0.26,3.14-0.78c0.59-0.52,0.88-1.27,0.88-2.25c0-0.91-0.29-1.62-0.88-2.13c-0.59-0.51-1.62-0.77-3.08-0.77
				h-4.26V77.34z M170.41,89.6h4.92c1.66,0,2.83-0.29,3.51-0.88c0.68-0.59,1.02-1.38,1.02-2.37c0-0.92-0.34-1.66-1.01-2.22
				c-0.67-0.56-1.86-0.84-3.55-0.84h-4.9V89.6z"/>
		</g>
	</g>
	<g>
		<g>
			<path class="st3" d="M193.91,65.1h29.32v7.71h-9.84v23.51h-9.65V72.8h-9.84V65.1z"/>
		</g>
	</g>
	<g>
		<g>
			<path class="st3" d="M227.92,80.73c0-5.1,1.42-9.06,4.26-11.9c2.84-2.84,6.79-4.26,11.86-4.26c5.2,0,9.2,1.39,12.01,4.18
				c2.81,2.79,4.22,6.7,4.22,11.72c0,3.65-0.61,6.64-1.84,8.98c-1.23,2.34-3,4.15-5.32,5.45c-2.32,1.3-5.21,1.95-8.68,1.95
				c-3.52,0-6.43-0.56-8.74-1.68s-4.18-2.9-5.61-5.32C228.64,87.41,227.92,84.37,227.92,80.73z M237.57,80.77
				c0,3.15,0.59,5.42,1.76,6.79c1.17,1.38,2.76,2.07,4.78,2.07c2.07,0,3.68-0.67,4.81-2.02c1.14-1.35,1.7-3.77,1.7-7.26
				c0-2.94-0.59-5.09-1.78-6.44c-1.19-1.36-2.79-2.03-4.82-2.03c-1.95,0-3.51,0.69-4.68,2.07
				C238.15,75.31,237.57,77.59,237.57,80.77z"/>
		</g>
	</g>
	<g>
		<g>
			<path class="st3" d="M296.89,96.31h-9.62V72.76h-10.6v23.55h-9.62V65.1h29.85V96.31z"/>
		</g>
	</g>
	<g>
		<g>
			<path class="st3" d="M304.81,65.1h16.03c3.49,0,6.11,0.83,7.85,2.49c1.74,1.66,2.61,4.02,2.61,7.09c0,3.15-0.95,5.61-2.84,7.39
				c-1.9,1.77-4.79,2.66-8.68,2.66h-5.28v11.58h-9.69V65.1z M314.5,78.4h2.36c1.86,0,3.17-0.32,3.92-0.97
				c0.75-0.65,1.13-1.47,1.13-2.48c0-0.98-0.33-1.81-0.98-2.49c-0.65-0.68-1.88-1.02-3.68-1.02h-2.75V78.4z"/>
		</g>
	</g>
	<g>
		<g>
			<path class="st3" d="M336.67,80.73c0-5.1,1.42-9.06,4.26-11.9c2.84-2.84,6.79-4.26,11.86-4.26c5.2,0,9.2,1.39,12.01,4.18
				c2.81,2.79,4.22,6.7,4.22,11.72c0,3.65-0.61,6.64-1.84,8.98c-1.23,2.34-3,4.15-5.32,5.45c-2.32,1.3-5.21,1.95-8.68,1.95
				c-3.52,0-6.43-0.56-8.74-1.68c-2.31-1.12-4.18-2.9-5.61-5.32C337.38,87.41,336.67,84.37,336.67,80.73z M346.31,80.77
				c0,3.15,0.59,5.42,1.76,6.79c1.17,1.38,2.76,2.07,4.78,2.07c2.07,0,3.68-0.67,4.81-2.02c1.14-1.35,1.7-3.77,1.7-7.26
				c0-2.94-0.59-5.09-1.78-6.44c-1.19-1.36-2.79-2.03-4.82-2.03c-1.94,0-3.51,0.69-4.68,2.07C346.9,75.31,346.31,77.59,346.31,80.77
				z"/>
		</g>
	</g>
	<g>
		<g>
			<path class="st3" d="M404.12,96.31h-10.86l-3.76-8.06c-0.89-1.91-1.58-3.1-2.08-3.57c-0.49-0.48-1.18-0.72-2.06-0.72v12.35h-9.62
				V65.1h9.62v11.99c0.84-0.04,1.49-0.34,1.96-0.89c0.47-0.55,1.2-2.14,2.19-4.77c0.72-1.94,1.46-3.34,2.19-4.18
				c0.74-0.84,1.94-1.45,3.6-1.82c1.66-0.37,4.26-0.55,7.81-0.55v6.6h-0.49c-1.65,0-2.87,0.31-3.66,0.94
				c-0.79,0.62-1.45,1.64-1.96,3.03c-0.51,1.4-1.06,2.44-1.65,3.13c-0.59,0.69-1.39,1.24-2.42,1.65c1.39,0.45,2.6,1.24,3.64,2.35
				c1.04,1.11,2.14,2.85,3.3,5.21L404.12,96.31z"/>
		</g>
	</g>
	<g>
		<g>
			<path class="st3" d="M428.3,91.16h-10.95l-1.52,5.15h-9.85l11.73-31.22h10.52l11.73,31.22h-10.1L428.3,91.16z M426.3,84.41
				l-3.45-11.22l-3.41,11.22H426.3z"/>
		</g>
	</g>
	<g>
		<g>
			<path class="st3" d="M442.37,65.1h29.32v7.71h-9.84v23.51h-9.65V72.8h-9.84V65.1z"/>
		</g>
	</g>
</g>
</svg>
