<?xml version="1.0" encoding="utf-8"?>
<svg version="1.1" id="Layer_1" xmlns="http://www.w3.org/2000/svg" xmlns:xlink="http://www.w3.org/1999/xlink" x="0px" y="0px"
	 viewBox="0 0 22.68 22.68" style="enable-background:new 0 0 22.68 22.68;" xml:space="preserve">
<style type="text/css">
	.st0{fill:#3A3A3A;}
</style>
<g>
	<g>
		<path class="st0" d="M11.34,9.99c-1.78,0-3.23-1.45-3.23-3.23s1.45-3.23,3.23-3.23s3.23,1.45,3.23,3.23S13.12,9.99,11.34,9.99z
			 M11.34,4.47c-1.26,0-2.29,1.03-2.29,2.29s1.03,2.29,2.29,2.29s2.29-1.03,2.29-2.29S12.6,4.47,11.34,4.47z"/>
	</g>
	<g>
		<path class="st0" d="M11.34,20.14l-0.38-0.52c-0.24-0.33-5.88-8.07-5.88-12.91C5.08,1.76,8.31,0,11.34,0s6.26,1.76,6.26,6.71
			c0,4.84-5.64,12.59-5.88,12.91L11.34,20.14z M11.34,0.94c-1.6,0-5.32,0.56-5.32,5.76c0,3.84,4.05,9.98,5.32,11.82
			c1.28-1.84,5.32-7.98,5.32-11.82C16.66,1.5,12.94,0.94,11.34,0.94z"/>
	</g>
	<g>
		<path class="st0" d="M11.34,22.68c-5.41,0-11.15-1.31-11.15-3.75c0-1.61,2.57-2.91,6.87-3.48c0.26-0.04,0.49,0.15,0.53,0.4
			s-0.15,0.49-0.4,0.53c-3.97,0.53-6.05,1.68-6.05,2.55c0,1.17,3.88,2.81,10.21,2.81s10.21-1.64,10.21-2.81
			c0-0.87-2.08-2.02-6.05-2.55c-0.26-0.03-0.44-0.27-0.4-0.53c0.03-0.26,0.27-0.44,0.53-0.4c4.3,0.57,6.87,1.87,6.87,3.48
			C22.49,21.36,16.74,22.68,11.34,22.68z"/>
	</g>
</g>
</svg>
