<?xml version="1.0" encoding="utf-8"?>
<!-- Generator: Adobe Illustrator 24.0.0, SVG Export Plug-In . SVG Version: 6.00 Build 0)  -->
<svg version="1.1" id="Layer_1" xmlns="http://www.w3.org/2000/svg" xmlns:xlink="http://www.w3.org/1999/xlink" x="0px" y="0px"
	 viewBox="0 0 22.11 25.51" style="enable-background:new 0 0 22.11 25.51;" xml:space="preserve">
<style type="text/css">
	.st0{fill:#3A3A3A;}
</style>
<g>
	<g>
		<path class="st0" d="M15.59,25.51H1.71c-0.88,0-1.6-0.72-1.6-1.6V1.6C0.1,0.72,0.82,0,1.71,0h13.88c0.88,0,1.6,0.72,1.6,1.6v3.57
			h-2.11V2.11H2.22V23.4h12.86v-3.06h2.11v3.57C17.19,24.79,16.47,25.51,15.59,25.51z"/>
	</g>
	<g>
		<rect x="6.47" y="20.34" class="st0" width="4.36" height="2.11"/>
	</g>
	<g>
		<path class="st0" d="M15.07,7.94v1.61c0.96,0.75,1.59,1.9,1.59,3.21s-0.63,2.46-1.59,3.21v1.61c1.75-0.91,2.97-2.72,2.97-4.82
			S16.83,8.84,15.07,7.94z"/>
	</g>
	<g>
		<path class="st0" d="M18.05,5.1v1.77c1.58,1.47,2.58,3.56,2.58,5.89s-1,4.42-2.58,5.89v1.77c2.39-1.71,3.96-4.5,3.96-7.66
			C22.01,9.6,20.44,6.81,18.05,5.1z"/>
	</g>
</g>
</svg>
